<svg width="64" height="64" viewBox="0 0 64 64" fill="none" xmlns="http://www.w3.org/2000/svg">
<rect width="64" height="64" rx="32" fill="url(#paint0_linear_178_11401)"/>
<path d="M32 16.9742C36.6495 16.9742 41.1843 18.2636 45.175 20.7143V33.7254C45.175 40.7862 35.2279 46.2242 32 47.8028C28.7764 46.2264 18.825 40.7862 18.825 33.7254V20.7143C22.8158 18.2636 27.3505 16.9742 32 16.9742ZM32 13C26.0691 13 20.5505 14.8127 15.9095 17.9147C15.3357 18.2989 15 18.9745 15 19.6833V33.7254C15 43.9059 28.2175 50.4523 31.3434 51.8565C31.5559 51.9514 31.779 52 32 52C32.221 52 32.4441 51.9514 32.6566 51.8565C35.7825 50.4523 49 43.9059 49 33.7254V19.6833C49 18.9745 48.6642 18.2989 48.0905 17.9147C43.4474 14.8105 37.9309 13 32 13Z" fill="url(#paint1_linear_178_11401)"/>
<defs>
<linearGradient id="paint0_linear_178_11401" x1="1.63806e-07" y1="64.0002" x2="64.0665" y2="63.9335" gradientUnits="userSpaceOnUse">
<stop stop-color="#EC0623"/>
<stop offset="1" stop-color="#FF8717"/>
</linearGradient>
<linearGradient id="paint1_linear_178_11401" x1="15" y1="52" x2="51.0181" y2="50.0375" gradientUnits="userSpaceOnUse">
<stop stop-color="#FFE88F"/>
<stop offset="1" stop-color="#B6E9FF"/>
</linearGradient>
</defs>
</svg>
